<?xml version="1.0" encoding="utf-8"?>
<svg xmlns="http://www.w3.org/2000/svg" xmlns:xlink="http://www.w3.org/1999/xlink" style="margin: auto; background: none; display: block; shape-rendering: auto;" width="100px" height="100px" viewBox="0 0 100 100" preserveAspectRatio="xMidYMid">
<g transform="translate(50 50)">
<g>
<animateTransform attributeName="transform" type="rotate" values="0;25.714285714285715" keyTimes="0;1" dur="0.2s" repeatCount="indefinite"></animateTransform><path d="M20.904544960366874 -2 L46.90454496036688 -2 L46.90454496036688 2 L20.904544960366874 2 A21 21 0 0 1 19.70211168519208 7.268204396150246 L19.70211168519208 7.268204396150246 L43.12730225065498 18.549181613206756 L41.391767294184746 22.15305708481643 L17.966576728721847 10.872079867759924 A21 21 0 0 1 14.59743356022219 15.096851772965746 L14.59743356022219 15.096851772965746 L30.80816840854926 35.42447031713452 L27.680842478677143 37.91842952456945 L11.47010763035007 17.59081098040068 A21 21 0 0 1 6.601554692876251 19.935382505408906 L6.601554692876251 19.935382505408906 L12.387098975740427 45.28350822213632 L8.487387327013131 46.17359195796158 L2.7018430441489554 20.825466241234164 A21 21 0 0 1 -2.7018430441489523 20.825466241234167 L-2.7018430441489523 20.825466241234167 L-8.487387327013124 46.17359195796158 L-12.38709897574042 45.28350822213632 L-6.601554692876248 19.935382505408906 A21 21 0 0 1 -11.47010763035007 17.59081098040068 L-11.47010763035007 17.59081098040068 L-27.680842478677143 37.918429524569454 L-30.808168408549253 35.42447031713452 L-14.597433560222182 15.09685177296575 A21 21 0 0 1 -17.966576728721847 10.87207986775992 L-17.966576728721847 10.87207986775992 L-41.391767294184746 22.15305708481643 L-43.12730225065498 18.549181613206766 L-19.702111685192076 7.268204396150252 A21 21 0 0 1 -20.904544960366874 1.9999999999999984 L-20.904544960366874 1.9999999999999984 L-46.90454496036688 2.0000000000000013 L-46.90454496036688 -1.9999999999999905 L-20.904544960366874 -1.9999999999999936 A21 21 0 0 1 -19.70211168519208 -7.268204396150247 L-19.70211168519208 -7.268204396150247 L-43.12730225065498 -18.549181613206756 L-41.391767294184746 -22.153057084816425 L-17.966576728721847 -10.872079867759917 A21 21 0 0 1 -14.597433560222187 -15.096851772965747 L-14.597433560222187 -15.096851772965747 L-30.808168408549264 -35.42447031713452 L-27.680842478677143 -37.918429524569454 L-11.470107630350066 -17.59081098040068 A21 21 0 0 1 -6.601554692876258 -19.935382505408906 L-6.601554692876258 -19.935382505408906 L-12.387098975740436 -45.28350822213632 L-8.487387327013131 -46.17359195796158 L-2.701843044148953 -20.825466241234167 A21 21 0 0 1 2.701843044148945 -20.825466241234167 L2.701843044148945 -20.825466241234167 L8.487387327013115 -46.17359195796158 L12.387098975740422 -45.28350822213632 L6.601554692876251 -19.935382505408906 A21 21 0 0 1 11.470107630350059 -17.590810980400686 L11.470107630350059 -17.590810980400686 L27.68084247867712 -37.91842952456946 L30.80816840854925 -35.42447031713453 L14.597433560222187 -15.096851772965747 A21 21 0 0 1 17.96657672872184 -10.87207986775993 L17.96657672872184 -10.87207986775993 L41.39176729418474 -22.153057084816446 L43.12730225065498 -18.549181613206763 L19.70211168519208 -7.268204396150246 A21 21 0 0 1 20.90454496036687 -2.00000000000001 M0 -15A15 15 0 1 0 0 15 A15 15 0 1 0 0 -15" fill="#0a0a0a"></path></g></g>
<!-- [ldio] generated by https://loading.io/ --></svg>